<?xml version="1.0" standalone="no"?>
<!DOCTYPE svg PUBLIC "-//W3C//DTD SVG 20010904//EN"
 "http://www.w3.org/TR/2001/REC-SVG-20010904/DTD/svg10.dtd">
<svg version="1.0" xmlns="http://www.w3.org/2000/svg"
 width="70.000000pt" height="70.000000pt" viewBox="0 0 70.000000 70.000000"
 preserveAspectRatio="xMidYMid meet">
<metadata>
Created by potrace 1.11, written by Peter Selinger 2001-2013
</metadata>
<g transform="translate(0.000000,70.000000) scale(0.100000,-0.100000)"
fill="#000000" stroke="none">
<path d="M200 560 l0 -40 -40 0 -40 0 0 -180 0 -180 60 0 60 0 0 160 c0 153 1
160 20 160 18 0 20 -7 20 -80 l0 -80 60 0 60 0 0 80 c0 73 2 80 20 80 19 0 20
-7 20 -160 l0 -160 60 0 60 0 0 180 0 180 -40 0 -40 0 0 40 0 40 -60 0 -60 0
0 -40 c0 -33 -3 -40 -20 -40 -17 0 -20 7 -20 40 l0 40 -60 0 -60 0 0 -40z"/>
</g>
</svg>
